<svg class="svgicon svgicon-calculator" xmlns="http://www.w3.org/2000/svg" width="23" height="21" viewBox="0 0 23 21"><path d="M21.375 0H1.125C0.826738 0.000347365 0.540792 0.118985 0.329889 0.329888C0.118985 0.540792 0.000347365 0.826738 0 1.125V19.125C0.000347365 19.4233 0.118985 19.7092 0.329889 19.9201C0.540792 20.131 0.826738 20.2497 1.125 20.25H21.375C21.6733 20.2497 21.9592 20.131 22.1701 19.9201C22.381 19.7092 22.4997 19.4233 22.5 19.125V1.125C22.4997 0.826738 22.381 0.540792 22.1701 0.329888C21.9592 0.118985 21.6733 0.000347365 21.375 0ZM21 18.75H1.5V1.5H21V18.75Z"/><path d="M6.375 9.375H7.875V7.5H9.75V6H7.875V4.125H6.375V6H4.5V7.5H6.375V9.375ZM8.45081 11.4885L7.125 12.8144L5.79919 11.4885L4.73855 12.5492L6.06436 13.875L4.73855 15.2008L5.79919 16.2615L7.125 14.9356L8.45081 16.2615L9.51145 15.2008L8.18564 13.875L9.51145 12.5492L8.45081 11.4885ZM12.75 6H18V7.5H12.75V6ZM12.75 11.625H18V13.125H12.75V11.625ZM12.75 14.625H18V16.125H12.75V14.625Z"/></svg>
