<svg class="svgicon svgicon-empty-bookmark" xmlns="http://www.w3.org/2000/svg" width="18" height="24" viewBox="0 0 18 24"><path d="M6.219 7.719C6.28867 7.64915 6.37143 7.59374 6.46255 7.55593C6.55366 7.51812 6.65135 7.49866 6.75 7.49866C6.84865 7.49866 6.94633 7.51812 7.03745 7.55593C7.12857 7.59374 7.21133 7.64915 7.281 7.719L9 9.4395L10.719 7.719C10.8598 7.57817 11.0508 7.49905 11.25 7.49905C11.4492 7.49905 11.6402 7.57817 11.781 7.719C11.9218 7.85983 12.0009 8.05083 12.0009 8.25C12.0009 8.44916 11.9218 8.64017 11.781 8.781L10.0605 10.5L11.781 12.219C11.9218 12.3598 12.0009 12.5508 12.0009 12.75C12.0009 12.9492 11.9218 13.1402 11.781 13.281C11.6402 13.4218 11.4492 13.5009 11.25 13.5009C11.0508 13.5009 10.8598 13.4218 10.719 13.281L9 11.5605L7.281 13.281C7.21127 13.3507 7.12848 13.406 7.03737 13.4438C6.94626 13.4815 6.84861 13.5009 6.75 13.5009C6.65138 13.5009 6.55373 13.4815 6.46262 13.4438C6.37151 13.406 6.28873 13.3507 6.219 13.281C6.14927 13.2113 6.09395 13.1285 6.05621 13.0374C6.01847 12.9463 5.99905 12.8486 5.99905 12.75C5.99905 12.6514 6.01847 12.5537 6.05621 12.4626C6.09395 12.3715 6.14927 12.2887 6.219 12.219L7.9395 10.5L6.219 8.781C6.14915 8.71133 6.09374 8.62857 6.05593 8.53745C6.01812 8.44633 5.99866 8.34865 5.99866 8.25C5.99866 8.15135 6.01812 8.05366 6.05593 7.96255C6.09374 7.87143 6.14915 7.78867 6.219 7.719Z"/><path d="M0 3C0 2.20435 0.31607 1.44129 0.87868 0.87868C1.44129 0.316071 2.20435 0 3 0L15 0C15.7956 0 16.5587 0.316071 17.1213 0.87868C17.6839 1.44129 18 2.20435 18 3V23.25C17.9999 23.3857 17.9631 23.5188 17.8933 23.6351C17.8236 23.7515 17.7236 23.8468 17.604 23.9108C17.4844 23.9748 17.3497 24.0052 17.2142 23.9988C17.0787 23.9923 16.9474 23.9492 16.8345 23.874L9 19.6515L1.1655 23.874C1.05256 23.9492 0.921345 23.9923 0.785837 23.9988C0.650329 24.0052 0.5156 23.9748 0.395999 23.9108C0.276399 23.8468 0.176406 23.7515 0.106671 23.6351C0.036936 23.5188 7.00806e-05 23.3857 0 23.25V3ZM3 1.5C2.60218 1.5 2.22064 1.65804 1.93934 1.93934C1.65804 2.22064 1.5 2.60218 1.5 3V21.849L8.5845 18.126C8.70759 18.0441 8.85215 18.0004 9 18.0004C9.14785 18.0004 9.29241 18.0441 9.4155 18.126L16.5 21.849V3C16.5 2.60218 16.342 2.22064 16.0607 1.93934C15.7794 1.65804 15.3978 1.5 15 1.5H3Z"/></svg>
