<svg class="svgicon svgicon-empty-notif" xmlns="http://www.w3.org/2000/svg" width="112" height="126" viewBox="0 0 112 126"><path d="M111.032 89.035L98.75 66.3595V42.75C98.75 19.1776 79.5724 0 56 0C32.4276 0 13.25 19.1776 13.25 42.75V66.3595L0.96752 89.0347C0.410509 90.0629 0.130164 91.2182 0.153955 92.3873C0.177745 93.5565 0.504855 94.6994 1.10323 95.704C1.70161 96.7087 2.55073 97.5407 3.56739 98.1185C4.58404 98.6963 5.73337 99 6.90274 99H31.3557C31.2863 99.748 31.251 100.499 31.25 101.25C31.25 107.814 33.8576 114.109 38.4991 118.751C43.1406 123.392 49.4359 126 56 126C62.5641 126 68.8593 123.392 73.5009 118.751C78.1424 114.109 80.75 107.814 80.75 101.25C80.75 100.491 80.712 99.7414 80.6442 99H105.097C106.266 98.9999 107.416 98.696 108.432 98.1182C109.449 97.5403 110.298 96.7084 110.896 95.7037C111.494 94.6991 111.821 93.5563 111.845 92.3873C111.869 91.2183 111.589 90.0632 111.032 89.035ZM71.75 101.25C71.752 103.415 71.3078 105.556 70.4452 107.542C69.5825 109.527 68.3199 111.313 66.7361 112.789C65.1523 114.264 63.2814 115.397 61.2402 116.117C59.1989 116.838 57.0311 117.129 54.872 116.974C52.713 116.819 50.6091 116.221 48.6916 115.216C46.7742 114.212 45.0843 112.823 43.7276 111.137C42.3709 109.45 41.3764 107.502 40.8062 105.414C40.236 103.325 40.1024 101.142 40.4137 99H71.5863C71.6947 99.7451 71.7494 100.497 71.75 101.25ZM10.6802 90L22.25 68.6405V42.75C22.25 33.7989 25.8058 25.2145 32.1351 18.8851C38.4645 12.5558 47.0489 9 56 9C64.951 9 73.5355 12.5558 79.8648 18.8851C86.1942 25.2145 89.75 33.7989 89.75 42.75V68.6405L101.32 90H10.6802Z"/><path d="M51.5 22.5H60.5V60.75H51.5V22.5ZM51.5 69.75H60.5V78.75H51.5V69.75Z"/></svg>
