<svg class="svgicon svgicon-feed-comment" xmlns="http://www.w3.org/2000/svg" viewBox="0 0 24 24"><path d="M22,23c-0.1,0-0.2,0-0.3,0l-4.5-1.3c-3.3,1.8-7.4,1.7-10.7-0.2c-5.2-3-7-9.8-4-15C4,4,6.3,2.1,9.2,1.4C12,0.6,15,1,17.5,2.5c5.1,3,7,9.5,4.2,14.6l1.2,4.6c0.1,0.3,0,0.7-0.3,1C22.5,22.9,22.3,23,22,23z M12,3c-0.8,0-1.6,0.1-2.3,0.3C7.4,3.9,5.4,5.4,4.2,7.5c-2.5,4.3-1,9.8,3.3,12.3c2.8,1.6,6.3,1.6,9.1,0c0.2-0.1,0.5-0.2,0.8-0.1l3.2,0.9l-0.9-3.3c-0.1-0.3,0-0.5,0.1-0.8c2.5-4.3,1-9.8-3.3-12.3C15.1,3.4,13.6,3,12,3z"/></svg>