<svg class="svgicon svgicon-location" xmlns="http://www.w3.org/2000/svg" width="16" height="16" viewBox="0 0 16 16"><path d="M13.0625 6.3125C13.0625 4.96984 12.5291 3.68217 11.5797 2.73277C10.6303 1.78337 9.34266 1.25 8 1.25C6.65734 1.25 5.36967 1.78337 4.42027 2.73277C3.47087 3.68217 2.9375 4.96984 2.9375 6.3125C2.9375 8.38925 4.59912 11.096 8 14.3383C11.4009 11.096 13.0625 8.38925 13.0625 6.3125ZM8 15.875C3.87463 12.1254 1.8125 8.93713 1.8125 6.3125C1.8125 4.67147 2.4644 3.09766 3.62478 1.93728C4.78516 0.776896 6.35897 0.125 8 0.125C9.64103 0.125 11.2148 0.776896 12.3752 1.93728C13.5356 3.09766 14.1875 4.67147 14.1875 6.3125C14.1875 8.93713 12.1254 12.1254 8 15.875Z"/><path d="M8.00001 2.36C7.43337 2.36 6.87945 2.52803 6.4083 2.84284C5.93716 3.15765 5.56994 3.6051 5.3531 4.12861C5.13625 4.65212 5.07951 5.22818 5.19006 5.78393C5.30061 6.33969 5.57347 6.85018 5.97415 7.25086C6.37483 7.65154 6.88532 7.9244 7.44108 8.03495C7.99683 8.1455 8.57289 8.08876 9.0964 7.87192C9.61991 7.65507 10.0674 7.28786 10.3822 6.81671C10.697 6.34556 10.865 5.79164 10.865 5.225C10.865 4.46516 10.5632 3.73643 10.0259 3.19914C9.48858 2.66185 8.75986 2.36 8.00001 2.36ZM8.00001 7.09C7.63115 7.09 7.27057 6.98062 6.96387 6.77569C6.65717 6.57076 6.41813 6.27949 6.27698 5.93871C6.13582 5.59792 6.09888 5.22293 6.17085 4.86116C6.24281 4.49938 6.42043 4.16707 6.68126 3.90625C6.94208 3.64542 7.27439 3.4678 7.63617 3.39584C7.99794 3.32387 8.37293 3.36081 8.71372 3.50197C9.0545 3.64312 9.34577 3.88216 9.5507 4.18886C9.75563 4.49556 9.86501 4.85614 9.86501 5.225C9.86369 5.71876 9.66661 6.19185 9.317 6.54052C8.96739 6.8892 8.49378 7.085 8.00001 7.085V7.09Z"/><path d="M8 6.875C8.29837 6.875 8.58452 6.75647 8.7955 6.5455C9.00647 6.33452 9.125 6.04837 9.125 5.75C9.125 5.45163 9.00647 5.16548 8.7955 4.9545C8.58452 4.74353 8.29837 4.625 8 4.625C7.70163 4.625 7.41548 4.74353 7.2045 4.9545C6.99353 5.16548 6.875 5.45163 6.875 5.75C6.875 6.04837 6.99353 6.33452 7.2045 6.5455C7.41548 6.75647 7.70163 6.875 8 6.875ZM8 8C7.40326 8 6.83097 7.76295 6.40901 7.34099C5.98705 6.91903 5.75 6.34674 5.75 5.75C5.75 5.15326 5.98705 4.58097 6.40901 4.15901C6.83097 3.73705 7.40326 3.5 8 3.5C8.59674 3.5 9.16903 3.73705 9.59099 4.15901C10.0129 4.58097 10.25 5.15326 10.25 5.75C10.25 6.34674 10.0129 6.91903 9.59099 7.34099C9.16903 7.76295 8.59674 8 8 8ZM14.075 11.375L15.875 15.875H10.8125V14.75H5.1875V15.875H0.125L1.925 11.375H14.075ZM12.8634 11.375H3.13663L1.78663 14.75H14.2134L12.8634 11.375Z"/></svg>