<svg class="svgicon svgicon-profile" xmlns="http://www.w3.org/2000/svg" width="200" height="200" viewBox="0 0 200 200"><path fill-rule="evenodd" clip-rule="evenodd" d="M54.045 153.57C88.27 148.57 111.835 149 146.105 153.745C148.587 154.105 150.855 155.35 152.49 157.252C154.125 159.153 155.016 161.582 155 164.09C155 166.49 154.175 168.82 152.685 170.64C150.088 173.813 147.427 176.934 144.705 180H157.91C158.74 179.01 159.575 178 160.42 176.975C163.386 173.338 165.004 168.788 165 164.095C165 153.97 157.61 145.245 147.475 143.845C112.395 138.99 87.875 138.525 52.6 143.68C42.36 145.175 35 154.035 35 164.23C35 168.755 36.475 173.23 39.27 176.855C40.095 177.925 40.91 178.975 41.72 180.005H54.605C52.0721 176.973 49.6016 173.889 47.195 170.755C45.7648 168.879 44.9933 166.584 45 164.225C45 158.84 48.87 154.325 54.045 153.57ZM100 105C103.94 105 107.841 104.224 111.48 102.716C115.12 101.209 118.427 98.999 121.213 96.2132C123.999 93.4275 126.209 90.1203 127.716 86.4805C129.224 82.8407 130 78.9397 130 75C130 71.0603 129.224 67.1593 127.716 63.5195C126.209 59.8797 123.999 56.5726 121.213 53.7868C118.427 51.001 115.12 48.7913 111.48 47.2836C107.841 45.776 103.94 45 100 45C92.0435 45 84.4129 48.1607 78.7868 53.7868C73.1607 59.4129 70 67.0435 70 75C70 82.9565 73.1607 90.5871 78.7868 96.2132C84.4129 101.839 92.0435 105 100 105ZM100 115C110.609 115 120.783 110.786 128.284 103.284C135.786 95.7828 140 85.6087 140 75C140 64.3913 135.786 54.2172 128.284 46.7157C120.783 39.2143 110.609 35 100 35C89.3913 35 79.2172 39.2143 71.7157 46.7157C64.2143 54.2172 60 64.3913 60 75C60 85.6087 64.2143 95.7828 71.7157 103.284C79.2172 110.786 89.3913 115 100 115Z"/><path fill-rule="evenodd" clip-rule="evenodd" d="M100 190C149.705 190 190 149.705 190 100C190 50.295 149.705 10 100 10C50.295 10 10 50.295 10 100C10 149.705 50.295 190 100 190ZM100 200C155.23 200 200 155.23 200 100C200 44.77 155.23 0 100 0C44.77 0 0 44.77 0 100C0 155.23 44.77 200 100 200Z"/></svg>