<svg class="svgicon svgicon-messenger" xmlns="http://www.w3.org/2000/svg" width="195" height="194" viewBox="0 0 195 194"><path d="M27.5 15C24.1848 15 21.0054 16.317 18.6612 18.6612C16.317 21.0054 15 24.1848 15 27.5V176.121L35.6453 150.312C38.2214 147.095 41.4879 144.498 45.2031 142.713C48.9183 140.928 52.9873 140.001 57.1091 140H167.5C170.815 140 173.995 138.683 176.339 136.339C178.683 133.995 180 130.815 180 127.5V27.5C180 24.1848 178.683 21.0054 176.339 18.6612C173.995 16.317 170.815 15 167.5 15H27.5ZM8.05456 8.05456C13.2118 2.89731 20.2065 0 27.5 0H167.5C174.793 0 181.788 2.89731 186.945 8.05456C192.103 13.2118 195 20.2065 195 27.5V127.5C195 134.793 192.103 141.788 186.945 146.945C181.788 152.103 174.793 155 167.5 155H57.1109V155C55.2377 155 53.3876 155.422 51.6991 156.233C50.0104 157.044 48.5256 158.225 47.3547 159.688L24.0525 188.818C24.051 188.82 24.0495 188.822 24.0479 188.823L24.0467 188.825C22.3018 191.009 19.9221 192.597 17.2359 193.371C14.5467 194.145 11.6833 194.065 9.04186 193.14C6.40037 192.216 4.11139 190.494 2.49154 188.212C0.871688 185.93 0.00101614 183.201 4.76837e-07 180.403L0 27.5C0 20.2065 2.89731 13.2118 8.05456 8.05456ZM40 57.5C40 53.3579 43.3579 50 47.5 50H107.5C111.642 50 115 53.3579 115 57.5C115 61.6421 111.642 65 107.5 65H47.5C43.3579 65 40 61.6421 40 57.5ZM40 97.5C40 93.3579 43.3579 90 47.5 90H147.5C151.642 90 155 93.3579 155 97.5C155 101.642 151.642 105 147.5 105H47.5C43.3579 105 40 101.642 40 97.5Z"/></svg>