<svg class="svgicon svgicon-profile" xmlns="http://www.w3.org/2000/svg" width="16" height="16" viewBox="0 0 200 200"><path d="M178,162.4c13.7-17.1,22-38.8,22-62.4C200,44.9,155.1,0,100,0S0,44.9,0,100s44.9,100,100,100C131.5,200,159.6,185.3,178,162.4C178,162.5,178,162.4,178,162.4z M100,14c47.4,0,86,38.6,86,86c0,18-5.5,34.6-15,48.4c-10-8.6-32.5-22.9-71.1-22.9c-38.6,0-61,14.3-71.1,22.9C19.5,134.6,14,118,14,100C14,52.6,52.6,14,100,14z M100,186c-24.5,0-46.6-10.3-62.3-26.8c7.9-6.8,27.3-19.7,62.3-19.7c35,0,54.4,12.8,62.3,19.7C146.6,175.7,124.5,186,100,186z"/><path d="M100,107c9.3,0,18.1-3.6,24.7-10.2c6.6-6.6,10.2-15.3,10.2-24.7c0-9.3-3.6-18.1-10.2-24.7c-13.2-13.2-36.2-13.2-49.3,0C68.7,54,65.1,62.8,65.1,72.1s3.6,18.1,10.2,24.7C81.9,103.3,90.7,107,100,107z M85.2,57.3c4-4,9.2-6.1,14.8-6.1c5.6,0,10.8,2.2,14.8,6.1c4,4,6.1,9.2,6.1,14.8c0,5.5-2.2,10.9-6.1,14.8c-7.9,7.9-21.7,7.9-29.6,0c-4-4-6.1-9.2-6.1-14.8C79.1,66.5,81.2,61.2,85.2,57.3z"/></svg>