<svg class="svgicon svgicon-video" xmlns="http://www.w3.org/2000/svg" width="214" height="196" viewBox="0 0 214 196"><path d="M200.8 49.3334H12.5333C9.20929 49.3334 6.02138 50.6538 3.67093 53.0043C1.32047 55.3548 0 58.5427 0 61.8667V183.467C0 186.791 1.32047 189.979 3.67093 192.329C6.02138 194.68 9.20929 196 12.5333 196H200.8C204.124 196 207.312 194.68 209.662 192.329C212.013 189.979 213.333 186.791 213.333 183.467V61.8667C213.333 58.5427 212.013 55.3548 209.662 53.0043C207.312 50.6538 204.124 49.3334 200.8 49.3334ZM200 182.667H13.3333V62.6667H200V182.667Z"/><path d="M187.6 6C187.6 4.4087 186.898 2.88258 185.647 1.75736C184.397 0.632141 182.702 0 180.933 0H34.2668C32.4987 0 30.803 0.632141 29.5527 1.75736C28.3025 2.88258 27.6001 4.4087 27.6001 6V12H187.6V6Z"/><path d="M200.8 30.6667C200.8 29.0754 200.098 27.5493 198.847 26.424C197.597 25.2988 195.901 24.6667 194.133 24.6667H20.8C19.0319 24.6667 17.3362 25.2988 16.0859 26.424C14.8357 27.5493 14.1333 29.0754 14.1333 30.6667V36.6667H200.8V30.6667Z"/><path d="M72.1333 161.267C73.9809 162.465 76.1314 163.112 78.3333 163.133C79.9202 163.13 81.4881 162.789 82.9333 162.133L148.067 133.067C150.08 132.192 151.794 130.748 152.998 128.912C154.202 127.076 154.843 124.929 154.843 122.733C154.843 120.538 154.202 118.391 152.998 116.555C151.794 114.719 150.08 113.275 148.067 112.4L82.9333 83.3334C81.2097 82.5679 79.3224 82.2447 77.4423 82.3929C75.5622 82.5412 73.7489 83.1563 72.1666 84.1825C70.5843 85.2086 69.2831 86.6134 68.3809 88.2696C67.4787 89.9257 67.0041 91.7808 67 93.6667V151.8C67.0034 153.68 67.4743 155.529 68.3705 157.182C69.2666 158.835 70.5597 160.238 72.1333 161.267ZM76.3333 93.6667C76.3312 93.3319 76.4162 93.0022 76.5798 92.7101C76.7434 92.4179 76.9801 92.1732 77.2667 92C77.6157 91.9035 77.9843 91.9035 78.3333 92C78.5966 91.94 78.87 91.94 79.1333 92L144.267 121C144.634 121.15 144.946 121.41 145.161 121.744C145.376 122.078 145.483 122.47 145.467 122.867C145.478 123.254 145.369 123.636 145.154 123.958C144.939 124.281 144.629 124.528 144.267 124.667L79.1333 153.733C78.8496 153.897 78.5277 153.983 78.2 153.983C77.8723 153.983 77.5504 153.897 77.2667 153.733C76.9885 153.551 76.7584 153.304 76.5959 153.014C76.4334 152.724 76.3433 152.399 76.3333 152.067V93.6667Z"/></svg>