<svg class="svgicon svgicon-login" xmlns="http://www.w3.org/2000/svg" width="126" height="120" viewBox="0 0 126 120"><path d="M54 54V36L84 60L54 84V66H0V54H54ZM8.748 78H21.492C25.6803 88.3145 33.3222 96.8532 43.1107 102.156C52.8991 107.458 64.2258 109.195 75.1533 107.068C86.0807 104.942 95.9299 99.0853 103.016 90.4994C110.102 81.9136 113.985 71.1324 114 60C114.006 48.856 110.135 38.057 103.049 29.4553C95.9641 20.8537 86.1067 14.9853 75.1678 12.8569C64.2289 10.7284 52.8903 12.4725 43.0967 17.7899C33.3031 23.1073 25.6648 31.6667 21.492 42H8.748C16.392 17.658 39.132 0 66 0C99.138 0 126 26.862 126 60C126 93.138 99.138 120 66 120C39.132 120 16.392 102.342 8.748 78Z"/></svg>
