<svg class="svgicon svgicon-socmed" xmlns="http://www.w3.org/2000/svg" width="360" height="242" viewBox="0 0 360 242"><path d="M48.5,15.7c11.1,0,22.9,4.3,37.3,13.5c30.1,19.4,49.7,49.2,59.9,91.1c2.5,10.3,6.1,22.5,13.8,34.3l10.9,16.7l3.7-19.6c6.1-32,13.2-54,24-73.7c5.5-10.1,11.1-15.7,15.5-15.7c4.3,0,10,4.9,16.1,13.9C243,96,248.8,119.7,255,144.7l0.4,1.8l9.3,37.7l6.4-38.3c0.2-1.3,0.4-2.3,0.5-3.2c0.2-1.5,0.4-2.5,0.6-3.5c2.7-15.4,6.4-26.7,11.7-35.4c6.3-10.4,15.3-17.6,27.3-22c4.8-1.8,9.4-2.7,13.5-2.7c9.3,0,17.1,4.6,23,13.6c6.4,9.6,4.7,13.9,1.9,17.1c-2.6,3-5.7,4.6-9.2,4.6c-3,0-6-1.2-8.7-3.3c-5.3-4.3-10-6.4-14.6-6.4c-10.1,0-14.4,9.4-17.2,15.6l-0.2,0.5c-3.2,6.9-5.2,14.1-6.9,21c-1,3.9-2,7.9-2.9,11.7c-3.1,12.8-6,24.8-10.9,36.3c-4.9,11.5-8.1,16.3-15.1,16.3l-0.1,0c-3.1,0-12.7-0.1-19-16.3c-2.5-6.6-4.6-13.3-6.7-20.4c-1.6-5.3-3.3-10.9-5.1-16.3c-0.6-1.8-1.2-3.8-1.8-5.8c-2.4-7.9-5.1-16.9-12.7-24.4l-8.5-8.4l-4.5,11.1c-8,19.7-11.2,39.8-14.4,59.2c-1.1,6.6-2.2,13.5-3.5,20.2c-3,15.8-9.6,24.6-21.7,29c-7.9-4-13.4-11-17.8-22.2c-4.4-11.3-8.9-22.8-13.2-34c-8.8-22.8-17.9-46.3-27.4-69.3c-6.2-15-10.3-25-24-25c-4.8,0-10.3,1.2-18.7,3.1l-0.4,0.1c-7.3,1.6-13.6,2.4-19.1,2.4c-14.5,0-26.4-5.1-37.1-29.5V41.6c0.9-1.3,1.8-2.5,2.7-3.7c4.6-6.4,8.9-12.5,15.2-16C33.6,17.7,40.9,15.7,48.5,15.7 M48.5,7.7c-8.5,0-17.2,2.1-26.2,7.2c-10.1,5.6-15.4,15.4-22,24.1c0,7.4,0,14.8,0,22.2c10.5,25,23.5,35.9,45.1,35.9c6.2,0,13.1-0.9,20.8-2.6c8-1.8,13.3-3,17.3-3c8,0,10.4,4.9,16.6,20c14.1,34.1,27.1,68.7,40.6,103.1c4.7,11.8,11.5,21.9,23.6,27.4c0.9,0,1.9,0,2.8,0c17.3-5.6,25.1-18.3,28.5-35.5c5-25.8,7.1-52.4,17.4-77.9c7.8,7.7,9.4,17.9,12.6,27.1c4.3,12.2,7.3,24.9,11.9,37c4.6,11.8,12.6,21.3,26.4,21.4c0.1,0,0.1,0,0.2,0c13.2,0,18.1-10.9,22.5-21.2c6.7-15.8,9.9-32.6,14.2-49.1c1.7-6.7,3.6-13.4,6.4-19.6c2.6-5.8,5.1-11.4,10.2-11.4c2.5,0,5.5,1.3,9.5,4.6c4.1,3.3,8.9,5.1,13.7,5.1c5.4,0,10.8-2.3,15.2-7.4c7.4-8.6,4.5-18-1.3-26.7c-7.5-11.4-17.7-17.2-29.7-17.2c-5.1,0-10.6,1.1-16.3,3.2c-29.7,10.9-39.2,35.5-44.1,63.5c-0.3,1.7-0.6,3.3-1.1,6.8c-6.5-26.5-12.4-51.3-27-72.8c-7.9-11.6-15.4-17.4-22.7-17.4c-7.8,0-15.3,6.6-22.6,19.9c-12.8,23.4-19.7,48.8-24.8,76c-6.7-10.3-10.1-20.9-12.7-31.8c-9.6-39.6-28.2-73.4-63.3-96C76.7,13.9,63,7.7,48.5,7.7L48.5,7.7z"/><path d="M170.8,8c20.3,10.3,21.6,21.1,20.9,28.5c-1.3,12.2-10.4,21.7-22.3,23.2c-0.9,0.1-1.9,0.2-2.9,0.2c-10.7,0-21.4-6.7-24.8-15.5c-4.3-11.1,0.4-25.1,10.7-31.7c2-1.3,4.3-2.5,6.7-3.7c0.6-0.3,1.1-0.6,1.7-0.9H170.8 M172.7,0c-4.6,0-9.3,0-13.9,0c-3.6,1.9-7.3,3.7-10.7,5.9c-13.5,8.7-19.4,26.7-13.8,41.3c4.7,12,18.5,20.6,32.2,20.6c1.3,0,2.6-0.1,3.8-0.2c15.6-1.9,27.6-14.3,29.3-30.3C201.2,21.7,192.5,9.5,172.7,0L172.7,0z"/><path d="M266.8,40.5c10.4,0,17.3,6.7,17.6,17.2c0.1,3.8-1.6,7.9-4.7,11.2c-3.3,3.5-7.7,5.7-12,5.8c-0.1,0-0.2,0-0.3,0c-8.3,0-17-8.1-17.3-16.1c-0.1-4,2-8.8,5.6-12.5c3.3-3.5,7.4-5.5,10.9-5.6L266.8,40.5L266.8,40.5 M266.8,32.5c-0.1,0-0.2,0-0.3,0c-12.3,0.1-24.8,13.6-24.5,26.3c0.4,12.3,12.7,23.9,25.3,23.9c0.2,0,0.4,0,0.6,0c13.1-0.4,24.9-12.5,24.5-25.2C291.9,42.8,281.4,32.5,266.8,32.5L266.8,32.5z"/></svg>