<svg class="svgicon svgicon-socmed" xmlns="http://www.w3.org/2000/svg" width="60" height="64" viewBox="0 0 60 64"><path d="M25.7057 1.6397C26.8857 0.584004 28.4159 0 30.0021 0C31.5884 0 33.1186 0.584004 34.2986 1.6397L57.87 22.7309C58.5402 23.3311 59.0762 24.0648 59.4431 24.8846C59.8101 25.7044 59.9998 26.5919 60 27.4894V57.5984C60 59.2962 59.3227 60.9245 58.1171 62.125C56.9115 63.3255 55.2764 64 53.5714 64H42.8571C41.1522 64 39.517 63.3255 38.3115 62.125C37.1059 60.9245 36.4286 59.2962 36.4286 57.5984V42.6613C36.4286 42.0953 36.2028 41.5526 35.8009 41.1524C35.3991 40.7522 34.854 40.5274 34.2857 40.5274H25.7143C25.146 40.5274 24.6009 40.7522 24.1991 41.1524C23.7972 41.5526 23.5714 42.0953 23.5714 42.6613V57.5984C23.5714 59.2962 22.8941 60.9245 21.6885 62.125C20.483 63.3255 18.8478 64 17.1429 64H6.42857C4.72361 64 3.08848 63.3255 1.88289 62.125C0.677294 60.9245 0 59.2962 0 57.5984V27.4894C0 25.6756 0.771428 23.9472 2.13429 22.7309L25.7057 1.6397ZM31.4314 4.8149C31.0382 4.4634 30.5284 4.26897 30 4.26897C29.4716 4.26897 28.9618 4.4634 28.5686 4.8149L4.99714 25.9061C4.77384 26.1057 4.59513 26.3498 4.47258 26.6225C4.35003 26.8953 4.28636 27.1906 4.28571 27.4894V57.5984C4.28571 58.1643 4.51148 58.7071 4.91334 59.1073C5.31521 59.5074 5.86025 59.7323 6.42857 59.7323H17.1429C17.7112 59.7323 18.2562 59.5074 18.6581 59.1073C19.0599 58.7071 19.2857 58.1643 19.2857 57.5984V42.6613C19.2857 40.9635 19.963 39.3352 21.1686 38.1346C22.3742 36.9341 24.0093 36.2597 25.7143 36.2597H34.2857C35.9907 36.2597 37.6258 36.9341 38.8314 38.1346C40.037 39.3352 40.7143 40.9635 40.7143 42.6613V57.5984C40.7143 58.1643 40.94 58.7071 41.3419 59.1073C41.7438 59.5074 42.2888 59.7323 42.8571 59.7323H53.5714C54.1397 59.7323 54.6848 59.5074 55.0867 59.1073C55.4885 58.7071 55.7143 58.1643 55.7143 57.5984V27.4894C55.7136 27.1906 55.65 26.8953 55.5274 26.6225C55.4049 26.3498 55.2262 26.1057 55.0029 25.9061L31.4314 4.8149Z"/></svg>