<svg class="svgicon svgicon-next-circle" xmlns="http://www.w3.org/2000/svg"width="16" height="16" viewBox="0 0 16 16"><path d="M8 0C9.58225 0 11.129 0.469192 12.4446 1.34824C13.7602 2.22729 14.7855 3.47672 15.391 4.93853C15.9965 6.40034 16.155 8.00887 15.8463 9.56072C15.5376 11.1126 14.7757 12.538 13.6569 13.6569C12.538 14.7757 11.1126 15.5376 9.56072 15.8463C8.00887 16.155 6.40034 15.9965 4.93853 15.391C3.47672 14.7855 2.22729 13.7602 1.34824 12.4446C0.469192 11.129 4.03209e-07 9.58225 4.03209e-07 8C0.00249127 5.87903 0.846146 3.84565 2.3459 2.3459C3.84565 0.846145 5.87903 0.00249086 8 0ZM8 15.0588C9.3961 15.0588 10.7609 14.6448 11.9217 13.8692C13.0825 13.0936 13.9872 11.9911 14.5215 10.7013C15.0558 9.41146 15.1956 7.99217 14.9232 6.62289C14.6508 5.25361 13.9785 3.99585 12.9913 3.00866C12.0041 2.02146 10.7464 1.34918 9.37711 1.07681C8.00783 0.804443 6.58854 0.944232 5.2987 1.4785C4.00887 2.01276 2.90644 2.91751 2.1308 4.07833C1.35517 5.23914 0.941177 6.60389 0.941177 8C0.943253 9.87148 1.68761 11.6657 3.01095 12.989C4.33429 14.3124 6.12852 15.0567 8 15.0588ZM4.39216 8C4.39216 8.12481 4.44174 8.2445 4.52999 8.33275C4.61824 8.42101 4.73794 8.47059 4.86274 8.47059H10.0008L8.2949 10.1773C8.24867 10.2203 8.21158 10.2723 8.18586 10.33C8.16014 10.3877 8.14631 10.4501 8.1452 10.5132C8.14408 10.5764 8.1557 10.6392 8.17937 10.6978C8.20304 10.7564 8.23827 10.8096 8.28295 10.8543C8.32764 10.899 8.38087 10.9342 8.43947 10.9579C8.49806 10.9815 8.56083 10.9932 8.62401 10.9921C8.6872 10.9909 8.74951 10.9771 8.80724 10.9514C8.86496 10.9257 8.91692 10.8886 8.96 10.8424L11.4698 8.33255C11.5579 8.24431 11.6074 8.1247 11.6074 8C11.6074 7.87529 11.5579 7.75568 11.4698 7.66745L8.96 5.15765C8.87079 5.07452 8.7528 5.02927 8.63089 5.03142C8.50897 5.03357 8.39265 5.08296 8.30643 5.16918C8.22021 5.2554 8.17082 5.37172 8.16867 5.49363C8.16652 5.61555 8.21178 5.73354 8.2949 5.82274L10.0008 7.52941H4.86274C4.73794 7.52941 4.61824 7.57899 4.52999 7.66724C4.44174 7.75549 4.39216 7.87519 4.39216 8Z"/></svg>
