<svg class="svgicon svgicon-notif-off" xmlns="http://www.w3.org/2000/svg" width="18" height="20" viewBox="0 0 18 20"><path d="M2.05489 1.24563C1.98903 1.17138 1.90908 1.11095 1.81969 1.06783C1.7303 1.02471 1.63324 0.999762 1.53413 0.99443C1.43503 0.989098 1.33585 1.00349 1.24235 1.03677C1.14885 1.07005 1.06288 1.12156 0.989431 1.18831C0.915982 1.25506 0.856512 1.33572 0.814467 1.42562C0.772422 1.51552 0.748639 1.61288 0.744496 1.71204C0.740353 1.8112 0.755933 1.9102 0.790332 2.00329C0.824731 2.09639 0.877265 2.18173 0.94489 2.25438L2.51426 3.98125C1.84776 5.12526 1.49766 6.426 1.49989 7.75C1.49989 11.0631 0.725515 13.5981 0.205202 14.4944C0.072331 14.7222 0.0018909 14.9811 0.000985404 15.2449C7.99066e-05 15.5086 0.0687412 15.768 0.200045 15.9967C0.331349 16.2255 0.520652 16.4156 0.748864 16.5478C0.977075 16.6801 1.23613 16.7498 1.49989 16.75H5.32489C5.49703 17.5977 5.95694 18.3599 6.6267 18.9073C7.29646 19.4547 8.13487 19.7538 8.99989 19.7538C9.86491 19.7538 10.7033 19.4547 11.3731 18.9073C12.0428 18.3599 12.5028 17.5977 12.6749 16.75H14.1224L15.9449 18.7544C16.0108 18.8286 16.0907 18.8891 16.1801 18.9322C16.2695 18.9753 16.3665 19.0002 16.4656 19.0056C16.5648 19.0109 16.6639 18.9965 16.7574 18.9632C16.8509 18.93 16.9369 18.8784 17.0103 18.8117C17.0838 18.7449 17.1433 18.6643 17.1853 18.5744C17.2274 18.4845 17.2511 18.3871 17.2553 18.288C17.2594 18.1888 17.2438 18.0898 17.2094 17.9967C17.175 17.9036 17.1225 17.8183 17.0549 17.7456L2.05489 1.24563ZM8.99989 18.25C8.53472 18.2499 8.08103 18.1055 7.70126 17.8369C7.3215 17.5683 7.03432 17.1886 6.87926 16.75H11.1205C10.9655 17.1886 10.6783 17.5683 10.2985 17.8369C9.91875 18.1055 9.46506 18.2499 8.99989 18.25ZM1.49989 15.25C2.22177 14.0088 2.99989 11.1325 2.99989 7.75C2.99858 6.85376 3.19917 5.96873 3.58677 5.16063L12.7583 15.25H1.49989ZM17.0624 14.8066C16.9748 14.8405 16.8817 14.858 16.7877 14.8581C16.6371 14.858 16.49 14.8125 16.3655 14.7275C16.2411 14.6426 16.1452 14.5221 16.0902 14.3819C15.4077 12.6428 14.9999 10.1641 14.9999 7.75C15.0002 6.70057 14.7252 5.66942 14.2025 4.75946C13.6797 3.8495 12.9274 3.09257 12.0207 2.56421C11.114 2.03586 10.0846 1.75455 9.03515 1.74839C7.98574 1.74222 6.95307 2.0114 6.0402 2.52906C5.86759 2.62259 5.66519 2.64471 5.47645 2.59067C5.28772 2.53663 5.12769 2.41074 5.03074 2.24003C4.93379 2.06932 4.90764 1.8674 4.9579 1.67762C5.00816 1.48784 5.13084 1.32534 5.29958 1.225C6.44059 0.577798 7.7314 0.241182 9.04317 0.248752C10.3549 0.256321 11.6418 0.607812 12.7752 1.26814C13.9087 1.92847 14.8492 2.87454 15.5027 4.01192C16.1563 5.1493 16.5001 6.43821 16.4999 7.75C16.4999 11.0641 17.2546 13.2428 17.4861 13.8325C17.5588 14.0176 17.555 14.224 17.4756 14.4063C17.3961 14.5887 17.2475 14.7319 17.0624 14.8047V14.8066Z"/></svg>
