<svg class="svgicon svgicon-octaframe" xmlns="http://www.w3.org/2000/svg" width="34" height="34" viewBox="0 0 34 34"><path d="M0 16.7828C1.53944 15.2433 3.07889 13.7039 4.62778 12.1739C4.79778 12.0133 4.83556 11.8339 4.83556 11.6072C4.83556 9.59555 4.83556 7.58389 4.83556 5.57222C4.83556 4.91111 4.93 4.81667 5.57222 4.81667C7.58389 4.81667 9.59556 4.81667 11.6072 4.81667C11.8244 4.81667 12.0039 4.77889 12.1739 4.60889C13.7039 3.06 15.2433 1.52055 16.7828 -0.0188904C16.915 -0.0188904 17.0472 -0.0188904 17.1794 -0.0188904C18.7189 1.52055 20.2583 3.06 21.7883 4.60889C21.9489 4.77889 22.1283 4.81667 22.355 4.81667C24.3761 4.81667 26.3972 4.81667 28.4278 4.81667C29.0417 4.81667 29.1456 4.92055 29.1456 5.525C29.1456 7.52722 29.155 9.52944 29.1361 11.5317C29.1361 11.815 29.2117 12.0228 29.4194 12.2306C30.855 13.6472 32.2717 15.0733 33.6883 16.49C34.1039 16.9056 34.1039 17.0189 33.6789 17.4439C32.2528 18.87 30.8172 20.3056 29.3817 21.7317C29.2022 21.9111 29.1267 22.0906 29.1267 22.3456C29.1361 24.3761 29.1361 26.4161 29.1267 28.4467C29.1267 29.0039 29.0133 29.1267 28.4467 29.1267C26.4444 29.1267 24.4422 29.1361 22.44 29.1172C22.1094 29.1172 21.8828 29.2211 21.6561 29.4478C20.2489 30.8739 18.8322 32.2811 17.4156 33.6978C17.0283 34.085 16.8961 34.0756 16.5089 33.6978C15.0733 32.2622 13.6283 30.8267 12.2022 29.3817C12.0228 29.2022 11.8433 29.1267 11.5883 29.1267C9.55778 29.1361 7.51778 29.1361 5.48722 29.1267C4.92056 29.1267 4.80722 29.0133 4.80722 28.4467C4.80722 26.4161 4.80722 24.3761 4.80722 22.3456C4.80722 22.0906 4.73167 21.9111 4.55222 21.7317C3.05056 20.23 1.52056 18.7094 0 17.1794C0 17.0472 0 16.915 0 16.7828ZM5.63833 25.0278C5.63833 25.9533 5.63833 26.8883 5.63833 27.8139C5.63833 28.3333 5.63833 28.3333 6.14833 28.3333C8.01833 28.3333 9.88833 28.3428 11.7489 28.3333C12.1078 28.3333 12.3722 28.4372 12.6272 28.6922C13.9872 30.0711 15.3661 31.4311 16.7167 32.81C16.9244 33.0178 17.0378 33.0178 17.2456 32.81C18.5961 31.4406 19.9656 30.09 21.3161 28.7206C21.59 28.4467 21.8733 28.3333 22.2511 28.3333C24.1117 28.3428 25.9628 28.3428 27.8233 28.3333C28.3333 28.3333 28.3333 28.3333 28.3333 27.8139C28.3333 25.9439 28.3333 24.0739 28.3333 22.2133C28.3333 21.8733 28.4278 21.6089 28.6828 21.3633C30.0617 20.0033 31.4217 18.6244 32.8006 17.2739C33.0178 17.0567 33.0178 16.9339 32.8006 16.7167C31.4406 15.3756 30.0994 14.0061 28.73 12.6744C28.4467 12.3911 28.3333 12.0983 28.3333 11.7111C28.3428 9.87889 28.3428 8.03722 28.3428 6.205C28.3428 5.64778 28.3428 5.64778 27.8044 5.64778C25.9439 5.64778 24.0928 5.63833 22.2322 5.64778C21.8733 5.64778 21.6089 5.54389 21.3539 5.28889C19.9939 3.91 18.6244 2.55 17.2644 1.17111C17.0567 0.963332 16.9433 0.963332 16.7356 1.17111C15.385 2.54055 14.0156 3.89111 12.665 5.26055C12.3911 5.53444 12.1078 5.64778 11.73 5.64778C9.86944 5.63833 8.01833 5.63833 6.15778 5.64778C5.64778 5.64778 5.64778 5.64778 5.64778 6.16722C5.64778 8.03722 5.64778 9.90722 5.64778 11.7678C5.64778 12.1078 5.55333 12.3722 5.29833 12.6178C3.91944 13.9778 2.55944 15.3567 1.18056 16.7072C0.963333 16.9244 0.963333 17.0472 1.18056 17.2644C2.55944 18.6244 3.91944 20.0033 5.29833 21.3539C5.55333 21.5994 5.64778 21.8639 5.64778 22.2039C5.62889 23.1483 5.62889 24.0833 5.63833 25.0278Z"/></svg>