<svg class="svgicon svgicon-prev-circle" xmlns="http://www.w3.org/2000/svg"width="16" height="16" viewBox="0 0 16 16"><path d="M8 0C6.41775 0 4.87103 0.469192 3.55544 1.34824C2.23985 2.22729 1.21447 3.47672 0.608967 4.93853C0.00346614 6.40034 -0.15496 8.00887 0.153721 9.56072C0.462403 11.1126 1.22433 12.538 2.34315 13.6569C3.46197 14.7757 4.88743 15.5376 6.43928 15.8463C7.99113 16.155 9.59966 15.9965 11.0615 15.391C12.5233 14.7855 13.7727 13.7602 14.6518 12.4446C15.5308 11.129 16 9.58225 16 8C15.9975 5.87903 15.1539 3.84565 13.6541 2.3459C12.1544 0.846145 10.121 0.00249086 8 0ZM8 15.0588C6.6039 15.0588 5.23915 14.6448 4.07833 13.8692C2.91751 13.0936 2.01277 11.9911 1.4785 10.7013C0.944235 9.41146 0.804447 7.99217 1.07681 6.62289C1.34918 5.25361 2.02147 3.99585 3.00866 3.00866C3.99585 2.02146 5.25362 1.34918 6.62289 1.07681C7.99217 0.804443 9.41146 0.944232 10.7013 1.4785C11.9911 2.01276 13.0936 2.91751 13.8692 4.07833C14.6448 5.23914 15.0588 6.60389 15.0588 8C15.0567 9.87148 14.3124 11.6657 12.989 12.989C11.6657 14.3124 9.87148 15.0567 8 15.0588ZM11.6078 8C11.6078 8.12481 11.5583 8.2445 11.47 8.33275C11.3818 8.42101 11.2621 8.47059 11.1373 8.47059H5.99922L7.7051 10.1773C7.75133 10.2203 7.78842 10.2723 7.81414 10.33C7.83986 10.3877 7.85369 10.4501 7.8548 10.5132C7.85592 10.5764 7.8443 10.6392 7.82063 10.6978C7.79696 10.7564 7.76173 10.8096 7.71705 10.8543C7.67236 10.899 7.61913 10.9342 7.56053 10.9579C7.50194 10.9815 7.43917 10.9932 7.37599 10.9921C7.3128 10.9909 7.25049 10.9771 7.19276 10.9514C7.13504 10.9257 7.08308 10.8886 7.04 10.8424L4.5302 8.33255C4.44207 8.24431 4.39257 8.1247 4.39257 8C4.39257 7.87529 4.44207 7.75568 4.5302 7.66745L7.04 5.15765C7.12921 5.07452 7.2472 5.02927 7.36911 5.03142C7.49103 5.03357 7.60735 5.08296 7.69357 5.16918C7.77979 5.2554 7.82918 5.37172 7.83133 5.49363C7.83348 5.61555 7.78822 5.73354 7.7051 5.82274L5.99922 7.52941H11.1373C11.2621 7.52941 11.3818 7.57899 11.47 7.66724C11.5583 7.75549 11.6078 7.87519 11.6078 8Z"/></svg>
