<svg class="svgicon svgicon-sound-on" xmlns="http://www.w3.org/2000/svg" width="22" height="20" viewBox="0 0 22 20"><path fill-rule="evenodd" clip-rule="evenodd" d="M9.99818 3.01908C9.99913 3.02445 10 3.03228 10 3.04302V16.957C10 16.9679 9.99913 16.9758 9.99818 16.9812L7.04192 13.6502L7.02759 13.6344C6.84291 13.4351 6.61917 13.2759 6.37029 13.1667C6.12141 13.0576 5.85273 13.0008 5.58098 13H2.01208C2.00679 12.9934 2 12.9806 2 12.959V7.04002C2 7.01916 2.00662 7.00656 2.01194 7.00002H5.586L5.58955 7.00001C5.85692 6.99906 6.12132 6.94397 6.36682 6.83806C6.61232 6.73215 6.83383 6.57762 7.01798 6.38379C7.02603 6.37531 7.03393 6.3667 7.04168 6.35795L9.99818 3.01908ZM8.57174 1.61435C9.88637 0.245465 12 1.30391 12 3.04302V16.957C12 18.7102 9.85899 19.7611 8.55382 18.3663C8.54782 18.3599 8.5419 18.3534 8.53608 18.3468L5.56579 15H2C0.858449 15 0 14.0483 0 12.959V7.04002C0 5.95111 0.859063 5.00002 2 5.00002H5.57272L8.54432 1.64408C8.55326 1.63398 8.56241 1.62407 8.57174 1.61435ZM17.2768 2.30942C17.6582 1.90998 18.2912 1.89537 18.6906 2.27678C23.0869 6.47462 23.1209 13.5458 18.686 17.7276C18.2842 18.1065 17.6513 18.0879 17.2724 17.6861C16.8935 17.2842 16.9121 16.6513 17.314 16.2724C20.9031 12.8882 20.8891 7.14141 17.3094 3.72326C16.91 3.34185 16.8954 2.70885 17.2768 2.30942ZM14.4001 5.69991C14.842 5.36862 15.4688 5.45827 15.8001 5.90016C16.6361 7.01524 16.9998 8.55545 16.9998 10C16.9998 11.4446 16.6361 12.9848 15.8001 14.0999C15.4688 14.5418 14.842 14.6314 14.4001 14.3001C13.9583 13.9688 13.8686 13.342 14.1999 12.9002C14.6969 12.2372 14.9998 11.1665 14.9998 10C14.9998 8.83358 14.6969 7.7628 14.1999 7.09987C13.8686 6.65798 13.9583 6.0312 14.4001 5.69991Z"/></svg>