<svg class="svgicon svgicon-sound-off" xmlns="http://www.w3.org/2000/svg" width="22" height="19" viewBox="0 0 22 19"><path fill-rule="evenodd" clip-rule="evenodd" d="M14.2929 5.30425C14.6834 4.91372 15.3166 4.91372 15.7071 5.30425L18 7.59714L20.2929 5.30425C20.6834 4.91372 21.3166 4.91372 21.7071 5.30425C22.0976 5.69477 22.0976 6.32794 21.7071 6.71846L19.4142 9.01135L21.7071 11.3042C22.0976 11.6948 22.0976 12.3279 21.7071 12.7185C21.3166 13.109 20.6834 13.109 20.2929 12.7185L18 10.4256L15.7071 12.7185C15.3166 13.109 14.6834 13.109 14.2929 12.7185C13.9024 12.3279 13.9024 11.6948 14.2929 11.3042L16.5858 9.01135L14.2929 6.71846C13.9024 6.32794 13.9024 5.69477 14.2929 5.30425Z"/><path fill-rule="evenodd" clip-rule="evenodd" d="M9.99818 2.03043C9.99913 2.0358 10 2.04363 10 2.05437V15.9684C10 15.9792 9.99913 15.9871 9.99818 15.9926L7.04192 12.6616L7.02759 12.6458C6.84291 12.4464 6.61917 12.2872 6.37029 12.1781C6.12141 12.0689 5.85273 12.0122 5.58098 12.0114H2.01208C2.00679 12.0048 2 11.9919 2 11.9704V6.05137C2 6.03051 2.00662 6.01791 2.01194 6.01137H5.586L5.58955 6.01136C5.85692 6.01041 6.12132 5.95532 6.36682 5.84941C6.61232 5.74351 6.83383 5.58898 7.01798 5.39514C7.02603 5.38667 7.03393 5.37805 7.04168 5.3693L9.99818 2.03043ZM8.57174 0.625699C9.88637 -0.743183 12 0.315265 12 2.05437V15.9684C12 17.7215 9.85899 18.7724 8.55382 17.3776C8.54782 17.3712 8.5419 17.3647 8.53608 17.3582L5.56579 14.0114H2C0.858449 14.0114 0 13.0596 0 11.9704V6.05137C0 4.96246 0.859063 4.01137 2 4.01137H5.57272L8.54432 0.655432C8.55326 0.645337 8.56241 0.635424 8.57174 0.625699Z"/></svg>